<?xml version="1.0" encoding="UTF-8" standalone="no"?>
<!DOCTYPE svg PUBLIC "-//W3C//DTD SVG 1.0//EN" "http://www.w3.org/TR/2001/PR-SVG-20010719/DTD/svg10.dtd">
<svg width="31cm" height="9cm" viewBox="229 -161 612 166" xmlns="http://www.w3.org/2000/svg" xmlns:xlink="http://www.w3.org/1999/xlink">
  <g>
    <line style="fill: none; fill-opacity:0; stroke-width: 1; stroke: #000000" x1="253.775" y1="-26.6695" x2="253.775" y2="-23.3361"/>
    <line style="fill: none; fill-opacity:0; stroke-width: 1; stroke: #000000" x1="281.925" y1="-26.6695" x2="281.925" y2="-23.3361"/>
    <line style="fill: none; fill-opacity:0; stroke-width: 1; stroke: #000000" x1="310.075" y1="-26.6695" x2="310.075" y2="-23.3361"/>
    <line style="fill: none; fill-opacity:0; stroke-width: 1; stroke: #000000" x1="338.225" y1="-26.6695" x2="338.225" y2="-23.3361"/>
    <line style="fill: none; fill-opacity:0; stroke-width: 1; stroke: #000000" x1="366.375" y1="-26.6695" x2="366.375" y2="-23.3361"/>
    <line style="fill: none; fill-opacity:0; stroke-width: 1; stroke: #000000" x1="394.525" y1="-26.6695" x2="394.525" y2="-23.3361"/>
    <line style="fill: none; fill-opacity:0; stroke-width: 1; stroke: #000000" x1="422.675" y1="-26.6695" x2="422.675" y2="-23.3361"/>
    <line style="fill: none; fill-opacity:0; stroke-width: 1; stroke: #000000" x1="450.825" y1="-26.6695" x2="450.825" y2="-23.3361"/>
    <line style="fill: none; fill-opacity:0; stroke-width: 1; stroke: #000000" x1="478.975" y1="-26.6695" x2="478.975" y2="-23.3361"/>
    <line style="fill: none; fill-opacity:0; stroke-width: 1; stroke: #000000" x1="507.125" y1="-26.6695" x2="507.125" y2="-23.3361"/>
    <line style="fill: none; fill-opacity:0; stroke-width: 1; stroke: #000000" x1="535.275" y1="-26.6695" x2="535.275" y2="-23.3361"/>
    <line style="fill: none; fill-opacity:0; stroke-width: 1; stroke: #000000" x1="563.425" y1="-26.6695" x2="563.425" y2="-23.3361"/>
    <line style="fill: none; fill-opacity:0; stroke-width: 1; stroke: #000000" x1="591.575" y1="-26.6695" x2="591.575" y2="-23.3361"/>
    <line style="fill: none; fill-opacity:0; stroke-width: 1; stroke: #000000" x1="619.725" y1="-26.6695" x2="619.725" y2="-23.3361"/>
    <line style="fill: none; fill-opacity:0; stroke-width: 1; stroke: #000000" x1="647.875" y1="-26.6695" x2="647.875" y2="-23.3361"/>
    <line style="fill: none; fill-opacity:0; stroke-width: 1; stroke: #000000" x1="676.025" y1="-26.6695" x2="676.025" y2="-23.3361"/>
    <line style="fill: none; fill-opacity:0; stroke-width: 1; stroke: #000000" x1="704.175" y1="-26.6695" x2="704.175" y2="-23.3361"/>
    <line style="fill: none; fill-opacity:0; stroke-width: 1; stroke: #000000" x1="732.325" y1="-26.6695" x2="732.325" y2="-23.3361"/>
    <line style="fill: none; fill-opacity:0; stroke-width: 1; stroke: #000000" x1="760.475" y1="-26.6695" x2="760.475" y2="-23.3361"/>
    <line style="fill: none; fill-opacity:0; stroke-width: 1; stroke: #000000" x1="788.625" y1="-26.6695" x2="788.625" y2="-23.3361"/>
    <line style="fill: none; fill-opacity:0; stroke-width: 1; stroke: #000000" x1="816.775" y1="-26.6695" x2="816.775" y2="-23.3361"/>
    <line style="fill: none; fill-opacity:0; stroke-width: 2; stroke: #000000" x1="253.775" y1="-26.6695" x2="253.775" y2="-16.6695"/>
    <text font-size="16" style="fill: #000000;text-anchor:middle;font-family:sans-serif;font-style:normal;font-weight:normal" x="253.775" y="-1.66945">0</text>
    <line style="fill: none; fill-opacity:0; stroke-width: 2; stroke: #000000" x1="394.525" y1="-26.6695" x2="394.525" y2="-16.6695"/>
    <text font-size="16" style="fill: #000000;text-anchor:middle;font-family:sans-serif;font-style:normal;font-weight:normal" x="394.525" y="-1.66945">5</text>
    <line style="fill: none; fill-opacity:0; stroke-width: 2; stroke: #000000" x1="535.275" y1="-26.6695" x2="535.275" y2="-16.6695"/>
    <text font-size="16" style="fill: #000000;text-anchor:middle;font-family:sans-serif;font-style:normal;font-weight:normal" x="535.275" y="-1.66945">10</text>
    <line style="fill: none; fill-opacity:0; stroke-width: 2; stroke: #000000" x1="676.025" y1="-26.6695" x2="676.025" y2="-16.6695"/>
    <text font-size="16" style="fill: #000000;text-anchor:middle;font-family:sans-serif;font-style:normal;font-weight:normal" x="676.025" y="-1.66945">15</text>
    <line style="fill: none; fill-opacity:0; stroke-width: 2; stroke: #000000" x1="253.775" y1="-26.6695" x2="816.775" y2="-26.6695"/>
  </g>
  <g>
    <line style="fill: none; fill-opacity:0; stroke-width: 2; stroke: #000000" x1="251.158" y1="-154.669" x2="808.422" y2="-153.687"/>
    <polygon style="fill: #000000" points="815.922,-153.673 805.913,-148.691 808.422,-153.687 805.931,-158.691 "/>
    <polygon style="fill: none; fill-opacity:0; stroke-width: 2; stroke: #000000" points="815.922,-153.673 805.913,-148.691 808.422,-153.687 805.931,-158.691 "/>
  </g>
  <g>
    <line style="fill: none; fill-opacity:0; stroke-width: 2; stroke: #000000" x1="463.775" y1="-85.6695" x2="546.725" y2="-85.6499"/>
    <polygon style="fill: #000000" points="554.225,-85.6482 544.224,-80.6505 546.725,-85.6499 544.226,-90.6505 "/>
    <polygon style="fill: none; fill-opacity:0; stroke-width: 2; stroke: #000000" points="554.225,-85.6482 544.224,-80.6505 546.725,-85.6499 544.226,-90.6505 "/>
  </g>
  <g>
    <line style="fill: none; fill-opacity:0; stroke-width: 2; stroke: #000000" x1="424.561" y1="-154.032" x2="460.802" y2="-93.0395"/>
    <polygon style="fill: #000000" points="464.633,-86.5918 455.226,-92.6347 460.802,-93.0395 463.823,-97.7428 "/>
    <polygon style="fill: none; fill-opacity:0; stroke-width: 2; stroke: #000000" points="464.633,-86.5918 455.226,-92.6347 460.802,-93.0395 463.823,-97.7428 "/>
  </g>
  <g>
    <line style="fill: none; fill-opacity:0; stroke-width: 2; stroke: #000000" x1="554.389" y1="-85.7513" x2="604.67" y2="-146.827"/>
    <polygon style="fill: #000000" points="609.437,-152.617 606.941,-141.719 604.67,-146.827 599.221,-148.075 "/>
    <polygon style="fill: none; fill-opacity:0; stroke-width: 2; stroke: #000000" points="609.437,-152.617 606.941,-141.719 604.67,-146.827 599.221,-148.075 "/>
  </g>
</svg>
