<?xml version="1.0" encoding="UTF-8" standalone="no"?>
<!DOCTYPE svg PUBLIC "-//W3C//DTD SVG 1.0//EN" "http://www.w3.org/TR/2001/PR-SVG-20010719/DTD/svg10.dtd">
<svg width="34cm" height="15cm" viewBox="306 50 669 300" xmlns="http://www.w3.org/2000/svg" xmlns:xlink="http://www.w3.org/1999/xlink">
  <g>
    <g>
      <rect style="fill: #ffffff" x="436.076" y="97.6763" width="51.4" height="31.75"/>
      <rect style="fill: none; fill-opacity:0; stroke-width: 2; stroke: #000000" x="436.076" y="97.6763" width="51.4" height="31.75"/>
    </g>
    <line style="fill: none; fill-opacity:0; stroke-width: 2; stroke: #000000" x1="436.076" y1="97.6763" x2="461.776" y2="113.551"/>
    <line style="fill: none; fill-opacity:0; stroke-width: 2; stroke: #000000" x1="487.476" y1="97.6763" x2="461.776" y2="113.551"/>
  </g>
  <g>
    <g>
      <path style="fill: none; fill-opacity:0; stroke-width: 2; stroke: #000000" d="M 562,267 A 50.9589,50.9589 0 0 0 648.448,317.839"/>
      <polygon style="fill: #000000" points="652.885,311.938 652.235,323.1 649.147,318.44 643.566,318.115 "/>
      <polygon style="fill: none; fill-opacity:0; stroke-width: 2; stroke: #000000" points="652.885,311.938 652.235,323.1 649.147,318.44 643.566,318.115 "/>
    </g>
    <g>
      <path style="fill: none; fill-opacity:0; stroke-width: 2; stroke: #000000" d="M 654,313 A 51.1465,51.1465 0 0 0 565.166,262.343"/>
      <polygon style="fill: #000000" points="561.776,268.903 560.557,257.789 564.379,261.869 569.936,261.26 "/>
      <polygon style="fill: none; fill-opacity:0; stroke-width: 2; stroke: #000000" points="561.776,268.903 560.557,257.789 564.379,261.869 569.936,261.26 "/>
    </g>
  </g>
  <g>
    <g>
      <rect style="fill: #ffffff" x="344.076" y="97.6763" width="51.4" height="31.75"/>
      <rect style="fill: none; fill-opacity:0; stroke-width: 2; stroke: #000000" x="344.076" y="97.6763" width="51.4" height="31.75"/>
    </g>
    <line style="fill: none; fill-opacity:0; stroke-width: 2; stroke: #000000" x1="344.076" y1="97.6763" x2="369.776" y2="113.551"/>
    <line style="fill: none; fill-opacity:0; stroke-width: 2; stroke: #000000" x1="395.476" y1="97.6763" x2="369.776" y2="113.551"/>
  </g>
  <g>
    <g>
      <rect style="fill: #ffffff" x="504.776" y="58.9763" width="51.4" height="31.75"/>
      <rect style="fill: none; fill-opacity:0; stroke-width: 2; stroke: #000000" x="504.776" y="58.9763" width="51.4" height="31.75"/>
    </g>
    <line style="fill: none; fill-opacity:0; stroke-width: 2; stroke: #000000" x1="504.776" y1="58.9763" x2="530.476" y2="74.8513"/>
    <line style="fill: none; fill-opacity:0; stroke-width: 2; stroke: #000000" x1="556.176" y1="58.9763" x2="530.476" y2="74.8513"/>
  </g>
  <g>
    <g>
      <rect style="fill: #ffffff" x="389.476" y="52.2763" width="51.4" height="31.75"/>
      <rect style="fill: none; fill-opacity:0; stroke-width: 2; stroke: #000000" x="389.476" y="52.2763" width="51.4" height="31.75"/>
    </g>
    <line style="fill: none; fill-opacity:0; stroke-width: 2; stroke: #000000" x1="389.476" y1="52.2763" x2="415.176" y2="68.1513"/>
    <line style="fill: none; fill-opacity:0; stroke-width: 2; stroke: #000000" x1="440.876" y1="52.2763" x2="415.176" y2="68.1513"/>
  </g>
  <g>
    <g>
      <rect style="fill: #ffffff" x="308.176" y="143.576" width="51.4" height="31.75"/>
      <rect style="fill: none; fill-opacity:0; stroke-width: 2; stroke: #000000" x="308.176" y="143.576" width="51.4" height="31.75"/>
    </g>
    <line style="fill: none; fill-opacity:0; stroke-width: 2; stroke: #000000" x1="308.176" y1="143.576" x2="333.876" y2="159.451"/>
    <line style="fill: none; fill-opacity:0; stroke-width: 2; stroke: #000000" x1="359.576" y1="143.576" x2="333.876" y2="159.451"/>
  </g>
  <g>
    <line style="fill: none; fill-opacity:0; stroke-width: 2; stroke: #000000" x1="380.604" y1="130.389" x2="469.855" y2="269.179"/>
    <polygon style="fill: #000000" points="473.911,275.487 464.297,269.781 469.855,269.179 472.708,264.372 "/>
    <polygon style="fill: none; fill-opacity:0; stroke-width: 2; stroke: #000000" points="473.911,275.487 464.297,269.781 469.855,269.179 472.708,264.372 "/>
  </g>
  <g>
    <line style="fill: none; fill-opacity:0; stroke-width: 2; stroke: #000000" x1="463.148" y1="130.389" x2="474.33" y2="267.664"/>
    <polygon style="fill: #000000" points="474.939,275.139 469.144,265.578 474.33,267.664 479.111,264.766 "/>
    <polygon style="fill: none; fill-opacity:0; stroke-width: 2; stroke: #000000" points="474.939,275.139 469.144,265.578 474.33,267.664 479.111,264.766 "/>
  </g>
  <g>
    <line style="fill: none; fill-opacity:0; stroke-width: 2; stroke: #000000" x1="354.092" y1="176.328" x2="467.647" y2="271.128"/>
    <polygon style="fill: #000000" points="473.404,275.935 462.523,273.365 467.647,271.128 468.932,265.688 "/>
    <polygon style="fill: none; fill-opacity:0; stroke-width: 2; stroke: #000000" points="473.404,275.935 462.523,273.365 467.647,271.128 468.932,265.688 "/>
  </g>
  <g>
    <line style="fill: none; fill-opacity:0; stroke-width: 2; stroke: #000000" x1="525.864" y1="91.7236" x2="477.688" y2="267.976"/>
    <polygon style="fill: #000000" points="475.71,275.211 473.524,264.247 477.688,267.976 483.17,266.883 "/>
    <polygon style="fill: none; fill-opacity:0; stroke-width: 2; stroke: #000000" points="475.71,275.211 473.524,264.247 477.688,267.976 483.17,266.883 "/>
  </g>
  <g>
    <line style="fill: none; fill-opacity:0; stroke-width: 2; stroke: #000000" x1="420.009" y1="85.0199" x2="472.439" y2="268.009"/>
    <polygon style="fill: #000000" points="474.505,275.218 466.944,266.982 472.439,268.009 476.557,264.228 "/>
    <polygon style="fill: none; fill-opacity:0; stroke-width: 2; stroke: #000000" points="474.505,275.218 466.944,266.982 472.439,268.009 476.557,264.228 "/>
  </g>
  <g>
    <g>
      <rect style="fill: #ffffff" x="797.55" y="214" width="137" height="26"/>
      <rect style="fill: none; fill-opacity:0; stroke-width: 2; stroke: #000000" x="797.55" y="214" width="137" height="26"/>
    </g>
    <text font-size="18.0619" style="fill: #000000;text-anchor:middle;font-family:sans-serif;font-style:normal;font-weight:normal" x="866.05" y="233.25">
      <tspan x="866.05" y="233.25">handler</tspan>
    </text>
  </g>
  <g>
    <g>
      <rect style="fill: #ffffff" x="797.55" y="250.533" width="137" height="26"/>
      <rect style="fill: none; fill-opacity:0; stroke-width: 2; stroke: #000000" x="797.55" y="250.533" width="137" height="26"/>
    </g>
    <text font-size="18.0619" style="fill: #000000;text-anchor:middle;font-family:sans-serif;font-style:normal;font-weight:normal" x="866.05" y="269.783">
      <tspan x="866.05" y="269.783">handler</tspan>
    </text>
  </g>
  <g>
    <g>
      <rect style="fill: #ffffff" x="797.55" y="323.6" width="137" height="26"/>
      <rect style="fill: none; fill-opacity:0; stroke-width: 2; stroke: #000000" x="797.55" y="323.6" width="137" height="26"/>
    </g>
    <text font-size="18.0619" style="fill: #000000;text-anchor:middle;font-family:sans-serif;font-style:normal;font-weight:normal" x="866.05" y="342.85">
      <tspan x="866.05" y="342.85">handler</tspan>
    </text>
  </g>
  <g>
    <g>
      <rect style="fill: #ffffff" x="797.55" y="287.067" width="137" height="26"/>
      <rect style="fill: none; fill-opacity:0; stroke-width: 2; stroke: #000000" x="797.55" y="287.067" width="137" height="26"/>
    </g>
    <text font-size="18.0619" style="fill: #000000;text-anchor:middle;font-family:sans-serif;font-style:normal;font-weight:normal" x="866.05" y="306.317">
      <tspan x="866.05" y="306.317">handler</tspan>
    </text>
  </g>
  <g>
    <line style="fill: none; fill-opacity:0; stroke-width: 2; stroke: #000000" x1="660" y1="310.947" x2="789.239" y2="232.072"/>
    <polygon style="fill: #000000" points="795.641,228.165 789.71,237.642 789.239,232.072 784.501,229.106 "/>
    <polygon style="fill: none; fill-opacity:0; stroke-width: 2; stroke: #000000" points="795.641,228.165 789.71,237.642 789.239,232.072 784.501,229.106 "/>
  </g>
  <g>
    <line style="fill: none; fill-opacity:0; stroke-width: 2; stroke: #000000" x1="662" y1="306.947" x2="788.278" y2="266.503"/>
    <polygon style="fill: #000000" points="795.42,264.215 787.422,272.027 788.278,266.503 784.372,262.504 "/>
    <polygon style="fill: none; fill-opacity:0; stroke-width: 2; stroke: #000000" points="795.42,264.215 787.422,272.027 788.278,266.503 784.372,262.504 "/>
  </g>
  <g>
    <line style="fill: none; fill-opacity:0; stroke-width: 2; stroke: #000000" x1="659" y1="309.947" x2="787.839" y2="300.759"/>
    <polygon style="fill: #000000" points="795.32,300.226 785.701,305.924 787.839,300.759 784.989,295.95 "/>
    <polygon style="fill: none; fill-opacity:0; stroke-width: 2; stroke: #000000" points="795.32,300.226 785.701,305.924 787.839,300.759 784.989,295.95 "/>
  </g>
  <g>
    <line style="fill: none; fill-opacity:0; stroke-width: 2; stroke: #000000" x1="658" y1="306.947" x2="788.027" y2="334.576"/>
    <polygon style="fill: #000000" points="795.363,336.135 784.542,338.948 788.027,334.576 786.62,329.166 "/>
    <polygon style="fill: none; fill-opacity:0; stroke-width: 2; stroke: #000000" points="795.363,336.135 784.542,338.948 788.027,334.576 786.62,329.166 "/>
  </g>
  <g>
    <g>
      <rect style="fill: #ffffff" x="707.076" y="127.624" width="51.4" height="31.75"/>
      <rect style="fill: none; fill-opacity:0; stroke-width: 2; stroke: #000000" x="707.076" y="127.624" width="51.4" height="31.75"/>
    </g>
    <line style="fill: none; fill-opacity:0; stroke-width: 2; stroke: #000000" x1="707.076" y1="127.624" x2="732.776" y2="143.499"/>
    <line style="fill: none; fill-opacity:0; stroke-width: 2; stroke: #000000" x1="758.476" y1="127.624" x2="732.776" y2="143.499"/>
  </g>
  <g>
    <path style="fill: none; fill-opacity:0; stroke-width: 2; stroke: #000000" d="M 706.083,131.433 A 173.876,173.876 0 0 0 476.396,267.727"/>
    <polygon style="fill: #000000" points="475.352,275.144 471.412,264.681 476.127,267.684 481.359,265.714 "/>
    <polygon style="fill: none; fill-opacity:0; stroke-width: 2; stroke: #000000" points="475.352,275.144 471.412,264.681 476.127,267.684 481.359,265.714 "/>
  </g>
  <g>
    <path style="fill: none; fill-opacity:0; stroke-width: 2; stroke: #000000" d="M 934.55 227 C 1034,167.947 937,124.947 768.16,142.492"/>
    <polygon style="fill: #000000" points="760.7,143.268 770.13,137.261 768.16,142.492 771.164,147.207 "/>
    <polygon style="fill: none; fill-opacity:0; stroke-width: 2; stroke: #000000" points="760.7,143.268 770.13,137.261 768.16,142.492 771.164,147.207 "/>
  </g>
  <text font-size="18.0619" style="fill: #000000;text-anchor:middle;font-family:sans-serif;font-style:normal;font-weight:normal" x="614" y="284.909">
    <tspan x="614" y="284.909">Event</tspan>
    <tspan x="614" y="307.486">loop</tspan>
  </text>
  <g>
    <line style="fill: none; fill-opacity:0; stroke-width: 2; stroke: #000000" x1="450" y1="259.947" x2="450" y2="328.601"/>
    <line style="fill: none; fill-opacity:0; stroke-width: 2; stroke: #000000" x1="499" y1="261.947" x2="498.707" y2="327.601"/>
    <line style="fill: none; fill-opacity:0; stroke-width: 2; stroke: #000000" x1="451" y1="327.947" x2="499" y2="328.947"/>
    <line style="fill: none; fill-opacity:0; stroke-width: 2; stroke: #000000" x1="449.721" y1="314.268" x2="497.721" y2="315.268"/>
    <line style="fill: none; fill-opacity:0; stroke-width: 2; stroke: #000000" x1="450.721" y1="302.268" x2="498.721" y2="303.268"/>
    <line style="fill: none; fill-opacity:0; stroke-width: 2; stroke: #000000" x1="450.421" y1="288.568" x2="498.421" y2="289.568"/>
    <line style="fill: none; fill-opacity:0; stroke-width: 2; stroke: #000000" x1="451.121" y1="276.868" x2="499.121" y2="277.868"/>
  </g>
  <g>
    <path style="fill: none; fill-opacity:0; stroke-width: 2; stroke: #000000" d="M 475,328.447 A 72.8516,72.8516 0 0 0 568.04,327.663"/>
    <polygon style="fill: #000000" points="573.497,322.603 570.481,333.369 568.458,328.158 563.075,326.649 "/>
    <polygon style="fill: none; fill-opacity:0; stroke-width: 2; stroke: #000000" points="573.497,322.603 570.481,333.369 568.458,328.158 563.075,326.649 "/>
  </g>
  <text font-size="18.0619" style="fill: #000000;text-anchor:start;font-family:sans-serif;font-style:normal;font-weight:normal" x="337" y="309.947">
    <tspan x="337" y="309.947">Task queue</tspan>
  </text>
</svg>
