<?xml version="1.0" encoding="UTF-8" standalone="no"?>
<!DOCTYPE svg PUBLIC "-//W3C//DTD SVG 1.0//EN" "http://www.w3.org/TR/2001/PR-SVG-20010719/DTD/svg10.dtd">
<svg width="49cm" height="24cm" viewBox="167 123 962 466" xmlns="http://www.w3.org/2000/svg" xmlns:xlink="http://www.w3.org/1999/xlink">
  <ellipse style="fill: none; fill-opacity:0; stroke-width: 2; stroke: #000000" cx="584" cy="354" rx="329" ry="122"/>
  <g>
    <line style="fill: none; fill-opacity:0; stroke-width: 2; stroke: #000000" x1="1065" y1="545" x2="1064.64" y2="447.719"/>
    <polygon style="fill: #000000" points="1064.61,440.219 1069.65,450.2 1064.64,447.719 1059.65,450.237 "/>
    <polygon style="fill: none; fill-opacity:0; stroke-width: 2; stroke: #000000" points="1064.61,440.219 1069.65,450.2 1064.64,447.719 1059.65,450.237 "/>
  </g>
  <g>
    <g>
      <rect style="fill: #ffffff" x="358.976" y="170.076" width="51.4" height="31.75"/>
      <rect style="fill: none; fill-opacity:0; stroke-width: 2; stroke: #000000" x="358.976" y="170.076" width="51.4" height="31.75"/>
    </g>
    <line style="fill: none; fill-opacity:0; stroke-width: 2; stroke: #000000" x1="358.976" y1="170.076" x2="384.676" y2="185.951"/>
    <line style="fill: none; fill-opacity:0; stroke-width: 2; stroke: #000000" x1="410.376" y1="170.076" x2="384.676" y2="185.951"/>
  </g>
  <g>
    <g>
      <rect style="fill: #ffffff" x="266.976" y="170.076" width="51.4" height="31.75"/>
      <rect style="fill: none; fill-opacity:0; stroke-width: 2; stroke: #000000" x="266.976" y="170.076" width="51.4" height="31.75"/>
    </g>
    <line style="fill: none; fill-opacity:0; stroke-width: 2; stroke: #000000" x1="266.976" y1="170.076" x2="292.676" y2="185.951"/>
    <line style="fill: none; fill-opacity:0; stroke-width: 2; stroke: #000000" x1="318.376" y1="170.076" x2="292.676" y2="185.951"/>
  </g>
  <g>
    <g>
      <rect style="fill: #ffffff" x="427.676" y="131.376" width="51.4" height="31.75"/>
      <rect style="fill: none; fill-opacity:0; stroke-width: 2; stroke: #000000" x="427.676" y="131.376" width="51.4" height="31.75"/>
    </g>
    <line style="fill: none; fill-opacity:0; stroke-width: 2; stroke: #000000" x1="427.676" y1="131.376" x2="453.376" y2="147.251"/>
    <line style="fill: none; fill-opacity:0; stroke-width: 2; stroke: #000000" x1="479.076" y1="131.376" x2="453.376" y2="147.251"/>
  </g>
  <g>
    <g>
      <rect style="fill: #ffffff" x="312.376" y="124.676" width="51.4" height="31.75"/>
      <rect style="fill: none; fill-opacity:0; stroke-width: 2; stroke: #000000" x="312.376" y="124.676" width="51.4" height="31.75"/>
    </g>
    <line style="fill: none; fill-opacity:0; stroke-width: 2; stroke: #000000" x1="312.376" y1="124.676" x2="338.076" y2="140.551"/>
    <line style="fill: none; fill-opacity:0; stroke-width: 2; stroke: #000000" x1="363.776" y1="124.676" x2="338.076" y2="140.551"/>
  </g>
  <g>
    <line style="fill: none; fill-opacity:0; stroke-width: 2; stroke: #000000" x1="303.504" y1="202.789" x2="392.755" y2="341.579"/>
    <polygon style="fill: #000000" points="396.811,347.887 387.197,342.181 392.755,341.579 395.608,336.772 "/>
    <polygon style="fill: none; fill-opacity:0; stroke-width: 2; stroke: #000000" points="396.811,347.887 387.197,342.181 392.755,341.579 395.608,336.772 "/>
  </g>
  <g>
    <line style="fill: none; fill-opacity:0; stroke-width: 2; stroke: #000000" x1="386.048" y1="202.789" x2="397.23" y2="340.064"/>
    <polygon style="fill: #000000" points="397.839,347.539 392.044,337.978 397.23,340.064 402.011,337.166 "/>
    <polygon style="fill: none; fill-opacity:0; stroke-width: 2; stroke: #000000" points="397.839,347.539 392.044,337.978 397.23,340.064 402.011,337.166 "/>
  </g>
  <g>
    <line style="fill: none; fill-opacity:0; stroke-width: 2; stroke: #000000" x1="232.881" y1="265.732" x2="389.343" y2="345.352"/>
    <polygon style="fill: #000000" points="396.028,348.754 384.848,348.675 389.343,345.352 389.383,339.762 "/>
    <polygon style="fill: none; fill-opacity:0; stroke-width: 2; stroke: #000000" points="396.028,348.754 384.848,348.675 389.343,345.352 389.383,339.762 "/>
  </g>
  <g>
    <line style="fill: none; fill-opacity:0; stroke-width: 2; stroke: #000000" x1="448.764" y1="164.124" x2="400.588" y2="340.376"/>
    <polygon style="fill: #000000" points="398.61,347.611 396.424,336.647 400.588,340.376 406.07,339.283 "/>
    <polygon style="fill: none; fill-opacity:0; stroke-width: 2; stroke: #000000" points="398.61,347.611 396.424,336.647 400.588,340.376 406.07,339.283 "/>
  </g>
  <g>
    <line style="fill: none; fill-opacity:0; stroke-width: 2; stroke: #000000" x1="342.909" y1="157.42" x2="395.339" y2="340.409"/>
    <polygon style="fill: #000000" points="397.405,347.618 389.844,339.382 395.339,340.409 399.457,336.628 "/>
    <polygon style="fill: none; fill-opacity:0; stroke-width: 2; stroke: #000000" points="397.405,347.618 389.844,339.382 395.339,340.409 399.457,336.628 "/>
  </g>
  <g>
    <g>
      <rect style="fill: #ffffff" x="720.45" y="286.4" width="137" height="26"/>
      <rect style="fill: none; fill-opacity:0; stroke-width: 2; stroke: #000000" x="720.45" y="286.4" width="137" height="26"/>
    </g>
    <text font-size="18.0619" style="fill: #000000;text-anchor:middle;font-family:sans-serif;font-style:normal;font-weight:normal" x="788.95" y="305.65">
      <tspan x="788.95" y="305.65">handler</tspan>
    </text>
  </g>
  <g>
    <g>
      <rect style="fill: #ffffff" x="720.45" y="322.933" width="137" height="26"/>
      <rect style="fill: none; fill-opacity:0; stroke-width: 2; stroke: #000000" x="720.45" y="322.933" width="137" height="26"/>
    </g>
    <text font-size="18.0619" style="fill: #000000;text-anchor:middle;font-family:sans-serif;font-style:normal;font-weight:normal" x="788.95" y="342.183">
      <tspan x="788.95" y="342.183">handler</tspan>
    </text>
  </g>
  <g>
    <g>
      <rect style="fill: #ffffff" x="720.45" y="396" width="137" height="26"/>
      <rect style="fill: none; fill-opacity:0; stroke-width: 2; stroke: #000000" x="720.45" y="396" width="137" height="26"/>
    </g>
    <text font-size="18.0619" style="fill: #000000;text-anchor:middle;font-family:sans-serif;font-style:normal;font-weight:normal" x="788.95" y="415.25">
      <tspan x="788.95" y="415.25">handler</tspan>
    </text>
  </g>
  <g>
    <g>
      <rect style="fill: #ffffff" x="720.45" y="359.467" width="137" height="26"/>
      <rect style="fill: none; fill-opacity:0; stroke-width: 2; stroke: #000000" x="720.45" y="359.467" width="137" height="26"/>
    </g>
    <text font-size="18.0619" style="fill: #000000;text-anchor:middle;font-family:sans-serif;font-style:normal;font-weight:normal" x="788.95" y="378.717">
      <tspan x="788.95" y="378.717">handler</tspan>
    </text>
  </g>
  <g>
    <line style="fill: none; fill-opacity:0; stroke-width: 2; stroke: #000000" x1="582.9" y1="383.347" x2="712.139" y2="304.472"/>
    <polygon style="fill: #000000" points="718.541,300.565 712.61,310.042 712.139,304.472 707.401,301.506 "/>
    <polygon style="fill: none; fill-opacity:0; stroke-width: 2; stroke: #000000" points="718.541,300.565 712.61,310.042 712.139,304.472 707.401,301.506 "/>
  </g>
  <g>
    <line style="fill: none; fill-opacity:0; stroke-width: 2; stroke: #000000" x1="584.9" y1="379.347" x2="711.178" y2="338.903"/>
    <polygon style="fill: #000000" points="718.32,336.615 710.322,344.427 711.178,338.903 707.272,334.904 "/>
    <polygon style="fill: none; fill-opacity:0; stroke-width: 2; stroke: #000000" points="718.32,336.615 710.322,344.427 711.178,338.903 707.272,334.904 "/>
  </g>
  <g>
    <line style="fill: none; fill-opacity:0; stroke-width: 2; stroke: #000000" x1="581.9" y1="382.347" x2="710.739" y2="373.159"/>
    <polygon style="fill: #000000" points="718.22,372.626 708.601,378.324 710.739,373.159 707.889,368.35 "/>
    <polygon style="fill: none; fill-opacity:0; stroke-width: 2; stroke: #000000" points="718.22,372.626 708.601,378.324 710.739,373.159 707.889,368.35 "/>
  </g>
  <g>
    <line style="fill: none; fill-opacity:0; stroke-width: 2; stroke: #000000" x1="580.9" y1="379.347" x2="710.927" y2="406.976"/>
    <polygon style="fill: #000000" points="718.263,408.535 707.442,411.348 710.927,406.976 709.52,401.566 "/>
    <polygon style="fill: none; fill-opacity:0; stroke-width: 2; stroke: #000000" points="718.263,408.535 707.442,411.348 710.927,406.976 709.52,401.566 "/>
  </g>
  <g>
    <g>
      <rect style="fill: #ffffff" x="602.976" y="255.024" width="51.4" height="31.75"/>
      <rect style="fill: none; fill-opacity:0; stroke-width: 2; stroke: #000000" x="602.976" y="255.024" width="51.4" height="31.75"/>
    </g>
    <line style="fill: none; fill-opacity:0; stroke-width: 2; stroke: #000000" x1="602.976" y1="255.024" x2="628.676" y2="270.899"/>
    <line style="fill: none; fill-opacity:0; stroke-width: 2; stroke: #000000" x1="654.376" y1="255.024" x2="628.676" y2="270.899"/>
  </g>
  <g>
    <path style="fill: none; fill-opacity:0; stroke-width: 2; stroke: #000000" d="M 602.976,270.899 A 143.642,143.642 0 0 0 401.509,340.696"/>
    <polygon style="fill: #000000" points="398.752,347.655 397.299,336.569 401.206,340.568 406.749,339.841 "/>
    <polygon style="fill: none; fill-opacity:0; stroke-width: 2; stroke: #000000" points="398.752,347.655 397.299,336.569 401.206,340.568 406.749,339.841 "/>
  </g>
  <g>
    <path style="fill: none; fill-opacity:0; stroke-width: 2; stroke: #000000" d="M 857.45 299.4 C 817,271 847,251 664.061,269.898"/>
    <polygon style="fill: #000000" points="656.601,270.669 666.034,264.668 664.061,269.898 667.061,274.615 "/>
    <polygon style="fill: none; fill-opacity:0; stroke-width: 2; stroke: #000000" points="656.601,270.669 666.034,264.668 664.061,269.898 667.061,274.615 "/>
  </g>
  <g>
    <line style="fill: none; fill-opacity:0; stroke-width: 2; stroke: #000000" x1="372.9" y1="332.347" x2="372.9" y2="401.001"/>
    <line style="fill: none; fill-opacity:0; stroke-width: 2; stroke: #000000" x1="421.9" y1="334.347" x2="421.607" y2="400.001"/>
    <line style="fill: none; fill-opacity:0; stroke-width: 2; stroke: #000000" x1="373.9" y1="400.347" x2="421.9" y2="401.347"/>
    <line style="fill: none; fill-opacity:0; stroke-width: 2; stroke: #000000" x1="372.621" y1="386.668" x2="420.621" y2="387.668"/>
    <line style="fill: none; fill-opacity:0; stroke-width: 2; stroke: #000000" x1="373.621" y1="374.668" x2="421.621" y2="375.668"/>
    <line style="fill: none; fill-opacity:0; stroke-width: 2; stroke: #000000" x1="373.321" y1="360.968" x2="421.321" y2="361.968"/>
    <line style="fill: none; fill-opacity:0; stroke-width: 2; stroke: #000000" x1="374.021" y1="349.268" x2="422.021" y2="350.268"/>
  </g>
  <g>
    <path style="fill: none; fill-opacity:0; stroke-width: 2; stroke: #000000" d="M 397.9,400.847 A 72.8516,72.8516 0 0 0 490.94,400.063"/>
    <polygon style="fill: #000000" points="496.397,395.003 493.381,405.769 491.358,400.558 485.975,399.049 "/>
    <polygon style="fill: none; fill-opacity:0; stroke-width: 2; stroke: #000000" points="496.397,395.003 493.381,405.769 491.358,400.558 485.975,399.049 "/>
  </g>
  <text font-size="18.0619" style="fill: #000000;text-anchor:start;font-family:sans-serif;font-style:normal;font-weight:normal" x="351.9" y="429.347">
    <tspan x="351.9" y="429.347">Task queue</tspan>
  </text>
  <g>
    <rect style="fill: #782b90" x="1001" y="382" width="127" height="55"/>
    <rect style="fill: none; fill-opacity:0; stroke-width: 2; stroke: #782b90" x="1001" y="382" width="127" height="55"/>
  </g>
  <text font-size="18.0619" style="fill: #ffffff;text-anchor:middle;font-family:sans-serif;font-style:normal;font-weight:normal" x="1064.5" y="415.75">
    <tspan x="1064.5" y="415.75">Worker</tspan>
  </text>
  <g>
    <rect style="fill: #782b90" x="356" y="534" width="770" height="54"/>
    <rect style="fill: none; fill-opacity:0; stroke-width: 2; stroke: #782b90" x="356" y="534" width="770" height="54"/>
  </g>
  <text font-size="18.0619" style="fill: #ffffff;text-anchor:middle;font-family:sans-serif;font-style:normal;font-weight:normal" x="741" y="567.25">
    <tspan x="741" y="567.25">EventBus</tspan>
  </text>
  <g>
    <g>
      <rect style="fill: #ffffff" x="1037.08" y="476.676" width="51.4" height="31.75"/>
      <rect style="fill: none; fill-opacity:0; stroke-width: 2; stroke: #000000" x="1037.08" y="476.676" width="51.4" height="31.75"/>
    </g>
    <line style="fill: none; fill-opacity:0; stroke-width: 2; stroke: #000000" x1="1037.08" y1="476.676" x2="1062.78" y2="492.551"/>
    <line style="fill: none; fill-opacity:0; stroke-width: 2; stroke: #000000" x1="1088.48" y1="476.676" x2="1062.78" y2="492.551"/>
  </g>
  <g>
    <path style="fill: none; fill-opacity:0; stroke-width: 2; stroke: #000000" d="M 911.012,522.78 A 96.9503,96.9503 0 0 0 857.45,409"/>
    <polygon style="fill: #000000" points="908.8,529.912 907.708,518.785 911.483,522.908 917.046,522.362 "/>
    <polygon style="fill: none; fill-opacity:0; stroke-width: 2; stroke: #000000" points="908.8,529.912 907.708,518.785 911.483,522.908 917.046,522.362 "/>
  </g>
  <g>
    <g>
      <rect style="fill: #ffffff" x="875.776" y="457.976" width="51.4" height="31.75"/>
      <rect style="fill: none; fill-opacity:0; stroke-width: 2; stroke: #000000" x="875.776" y="457.976" width="51.4" height="31.75"/>
    </g>
    <line style="fill: none; fill-opacity:0; stroke-width: 2; stroke: #000000" x1="875.776" y1="457.976" x2="901.476" y2="473.851"/>
    <line style="fill: none; fill-opacity:0; stroke-width: 2; stroke: #000000" x1="927.176" y1="457.976" x2="901.476" y2="473.851"/>
  </g>
  <g>
    <path style="fill: none; fill-opacity:0; stroke-width: 2; stroke: #000000" d="M 428 531 C 250,472 200,318 388.407,348.226"/>
    <polygon style="fill: #000000" points="395.813,349.414 385.147,352.767 388.407,348.226 386.731,342.893 "/>
    <polygon style="fill: none; fill-opacity:0; stroke-width: 2; stroke: #000000" points="395.813,349.414 385.147,352.767 388.407,348.226 386.731,342.893 "/>
  </g>
  <g>
    <g>
      <ellipse style="fill: #782b90" cx="524.5" cy="337.5" rx="53.5" ry="53.5"/>
      <ellipse style="fill: none; fill-opacity:0; stroke-width: 2; stroke: #782b90" cx="524.5" cy="337.5" rx="53.5" ry="53.5"/>
    </g>
    <g>
      <path style="fill: none; fill-opacity:0; stroke-width: 2; stroke: #000000" d="M 577.136,327.921 A 53.5,53.5 0 0 0 471,337.5"/>
      <polygon style="fill: #000000" points="578,335.264 573,325.264 578,327.764 583,325.264 "/>
      <polygon style="fill: none; fill-opacity:0; stroke-width: 2; stroke: #000000" points="578,335.264 573,325.264 578,327.764 583,325.264 "/>
    </g>
    <g>
      <path style="fill: none; fill-opacity:0; stroke-width: 2; stroke: #000000" d="M 471.864,347.079 A 53.5,53.5 0 0 0 578,337.5"/>
      <polygon style="fill: #000000" points="471,339.736 476,349.736 471,347.236 466,349.736 "/>
      <polygon style="fill: none; fill-opacity:0; stroke-width: 2; stroke: #000000" points="471,339.736 476,349.736 471,347.236 466,349.736 "/>
    </g>
  </g>
  <g>
    <g>
      <ellipse style="fill: #ffffff" cx="534.436" cy="353.8" rx="53.5" ry="53.5"/>
      <ellipse style="fill: none; fill-opacity:0; stroke-width: 2; stroke: #782b90" cx="534.436" cy="353.8" rx="53.5" ry="53.5"/>
    </g>
    <g>
      <path style="fill: none; fill-opacity:0; stroke-width: 2; stroke: #000000" d="M 587.072,344.221 A 53.5,53.5 0 0 0 480.936,353.8"/>
      <polygon style="fill: #000000" points="587.936,351.564 582.936,341.564 587.936,344.064 592.936,341.564 "/>
      <polygon style="fill: none; fill-opacity:0; stroke-width: 2; stroke: #000000" points="587.936,351.564 582.936,341.564 587.936,344.064 592.936,341.564 "/>
    </g>
    <g>
      <path style="fill: none; fill-opacity:0; stroke-width: 2; stroke: #000000" d="M 481.801,363.379 A 53.5,53.5 0 0 0 587.936,353.8"/>
      <polygon style="fill: #000000" points="480.936,356.036 485.936,366.036 480.936,363.536 475.936,366.036 "/>
      <polygon style="fill: none; fill-opacity:0; stroke-width: 2; stroke: #000000" points="480.936,356.036 485.936,366.036 480.936,363.536 475.936,366.036 "/>
    </g>
  </g>
  <text font-size="18.0619" style="fill: #000000;text-anchor:middle;font-family:sans-serif;font-style:normal;font-weight:normal" x="534.436" y="348.761">
    <tspan x="534.436" y="348.761">Event</tspan>
    <tspan x="534.436" y="371.339">loop</tspan>
  </text>
  <g>
    <rect style="fill: #ffffff" x="885" y="137.691" width="59.1" height="52.1471"/>
    <ellipse style="fill: #ffffff" cx="914.55" cy="189.838" rx="29.55" ry="8.69118"/>
    <ellipse style="fill: #ffffff" cx="914.55" cy="137.691" rx="29.55" ry="8.69118"/>
    <ellipse style="fill: none; fill-opacity:0; stroke-width: 2; stroke: #000000" cx="914.55" cy="137.691" rx="29.55" ry="8.69118"/>
    <path style="fill: none; fill-opacity:0; stroke-width: 2; stroke: #000000" d="M 944.1 137.691 L 944.1,189.838 C 944.1,194.638 930.87,198.529 914.55,198.529 C 898.23,198.529 885,194.638 885,189.838 L 885,137.691"/>
    <text font-size="12.7998" style="fill: #000000;text-anchor:middle;font-family:sans-serif;font-style:normal;font-weight:normal" x="914.55" y="210.529">
      <tspan x="914.55" y="210.529">SQL</tspan>
    </text>
  </g>
  <g>
    <path style="fill: none; fill-opacity:0; stroke-width: 2; stroke: #000000" d="M 857.45 335.933 C 878.138,335.933 954.009,229.798 941.255,205.206"/>
    <polygon style="fill: #000000" points="937.803,198.548 946.845,205.123 941.255,205.206 937.968,209.727 "/>
    <polygon style="fill: none; fill-opacity:0; stroke-width: 2; stroke: #000000" points="937.803,198.548 946.845,205.123 941.255,205.206 937.968,209.727 "/>
  </g>
  <g>
    <path style="fill: none; fill-opacity:0; stroke-width: 2; stroke: #000000" d="M 884.03 163.765 C 710.811,163.765 487,141 401.838,340.812"/>
    <polygon style="fill: #000000" points="398.897,347.711 398.219,336.551 401.838,340.812 407.418,340.472 "/>
    <polygon style="fill: none; fill-opacity:0; stroke-width: 2; stroke: #000000" points="398.897,347.711 398.219,336.551 401.838,340.812 407.418,340.472 "/>
  </g>
  <g>
    <g>
      <rect style="fill: #782b90" x="663.076" y="146.676" width="51.4" height="31.75"/>
      <rect style="fill: none; fill-opacity:0; stroke-width: 2; stroke: #ffffff" x="663.076" y="146.676" width="51.4" height="31.75"/>
    </g>
    <line style="fill: none; fill-opacity:0; stroke-width: 2; stroke: #ffffff" x1="663.076" y1="146.676" x2="688.776" y2="162.551"/>
    <line style="fill: none; fill-opacity:0; stroke-width: 2; stroke: #ffffff" x1="714.476" y1="146.676" x2="688.776" y2="162.551"/>
  </g>
  <g>
    <g>
      <rect style="fill: #782b90" x="893.776" y="249.976" width="51.4" height="31.75"/>
      <rect style="fill: none; fill-opacity:0; stroke-width: 2; stroke: #ffffff" x="893.776" y="249.976" width="51.4" height="31.75"/>
    </g>
    <line style="fill: none; fill-opacity:0; stroke-width: 2; stroke: #ffffff" x1="893.776" y1="249.976" x2="919.476" y2="265.851"/>
    <line style="fill: none; fill-opacity:0; stroke-width: 2; stroke: #ffffff" x1="945.176" y1="249.976" x2="919.476" y2="265.851"/>
  </g>
  <g>
    <ellipse style="fill: #ffffff" cx="200" cy="213" rx="6" ry="6"/>
    <ellipse style="fill: none; fill-opacity:0; stroke-width: 2; stroke: #000000" cx="200" cy="213" rx="6" ry="6"/>
    <line style="fill: none; fill-opacity:0; stroke-width: 2; stroke: #000000" x1="176" y1="225" x2="224" y2="225"/>
    <line style="fill: none; fill-opacity:0; stroke-width: 2; stroke: #000000" x1="200" y1="219" x2="200" y2="249"/>
    <line style="fill: none; fill-opacity:0; stroke-width: 2; stroke: #000000" x1="200" y1="249" x2="176" y2="275"/>
    <line style="fill: none; fill-opacity:0; stroke-width: 2; stroke: #000000" x1="200" y1="249" x2="224" y2="275"/>
    <text font-size="12.7998" style="fill: #000000;text-anchor:middle;font-family:sans-serif;font-style:normal;font-weight:normal" x="200" y="298.9">
      <tspan x="200" y="298.9">Utilisateur</tspan>
    </text>
  </g>
  <g>
    <g>
      <rect style="fill: #782b90" x="277.076" y="284.976" width="51.4" height="31.75"/>
      <rect style="fill: none; fill-opacity:0; stroke-width: 2; stroke: #ffffff" x="277.076" y="284.976" width="51.4" height="31.75"/>
    </g>
    <line style="fill: none; fill-opacity:0; stroke-width: 2; stroke: #ffffff" x1="277.076" y1="284.976" x2="302.776" y2="300.851"/>
    <line style="fill: none; fill-opacity:0; stroke-width: 2; stroke: #ffffff" x1="328.476" y1="284.976" x2="302.776" y2="300.851"/>
  </g>
</svg>
